<?xml version="1.0" encoding="UTF-8" standalone="no"?>
<svg
   viewBox="0 0 64 64"
   version="1.1"
   id="svg41"
   sodipodi:docname="server-up.svg"
   inkscape:version="1.1.1 (eb90963e84, 2021-10-02)"
   xmlns:inkscape="http://www.inkscape.org/namespaces/inkscape"
   xmlns:sodipodi="http://sodipodi.sourceforge.net/DTD/sodipodi-0.dtd"
   xmlns="http://www.w3.org/2000/svg"
   xmlns:svg="http://www.w3.org/2000/svg">
  <sodipodi:namedview
     id="namedview43"
     pagecolor="#ffffff"
     bordercolor="#666666"
     borderopacity="1.0"
     inkscape:pageshadow="2"
     inkscape:pageopacity="0.0"
     inkscape:pagecheckerboard="0"
     showgrid="false"
     inkscape:zoom="11.234375"
     inkscape:cx="31.955494"
     inkscape:cy="31.732962"
     inkscape:window-width="2304"
     inkscape:window-height="1355"
     inkscape:window-x="0"
     inkscape:window-y="0"
     inkscape:window-maximized="1"
     inkscape:current-layer="svg41" />
  <defs
     id="defs11">
    <linearGradient
       id="a"
       x1="58.8646"
       y1="42.1354"
       x2="5.1354"
       y2="95.8646"
       gradientTransform="translate(0 -37)"
       gradientUnits="userSpaceOnUse">
      <stop
         offset="0"
         stop-color="#3c5eab"
         id="stop2" />
      <stop
         offset="0.2347"
         stop-color="#3959a2"
         id="stop4" />
      <stop
         offset="0.6172"
         stop-color="#304b8a"
         id="stop6" />
      <stop
         offset="1"
         stop-color="#253a6b"
         id="stop8" />
    </linearGradient>
  </defs>
  <path
     d="M57,20.8921a1.5,1.5,0,0,0,1.5-1.5v-14a1.5,1.5,0,0,0-1.5-1.5H7a1.5,1.5,0,0,0-1.5,1.5v14a1.5,1.5,0,0,0,1.5,1.5H30.5V23.5H7A1.5,1.5,0,0,0,5.5,25V39A1.5,1.5,0,0,0,7,40.5H30.5v2.6079H7a1.5,1.5,0,0,0-1.5,1.5v14a1.5,1.5,0,0,0,1.5,1.5H57a1.5,1.5,0,0,0,1.5-1.5v-14a1.5,1.5,0,0,0-1.5-1.5H33.5V40.5H57A1.5,1.5,0,0,0,58.5,39V25A1.5,1.5,0,0,0,57,23.5H33.5V20.8921ZM55.5,57.1079H8.5v-11h47ZM55.5,37.5H8.5v-11h47ZM8.5,6.8921h47v11H8.5Z"
     style="fill:#231f20"
     id="path13" />
  <circle
     cx="48.1765"
     cy="12.3922"
     r="3"
     style="fill:#231f20"
     id="circle15" />
  <circle
     cx="48.1765"
     cy="32.3676"
     r="3"
     style="fill:#231f20"
     id="circle17" />
  <circle
     cx="48.1765"
     cy="51.9755"
     r="3"
     style="fill:#231f20"
     id="circle19" />
  <path
     d="M21.2441,13.5H14a1.5,1.5,0,0,1,0-3h7.2441a1.5,1.5,0,1,1,0,3Z"
     style="fill:#231f20"
     id="path21" />
  <path
     d="M21.2441,33.5H14a1.5,1.5,0,0,1,0-3h7.2441a1.5,1.5,0,1,1,0,3Z"
     style="fill:#231f20"
     id="path23" />
  <path
     d="M21.2441,53.5H14a1.5,1.5,0,0,1,0-3h7.2441a1.5,1.5,0,1,1,0,3Z"
     style="fill:#231f20"
     id="path25" />
  <path
     d="M57,20.8921a1.5,1.5,0,0,0,1.5-1.5v-14a1.5,1.5,0,0,0-1.5-1.5H7a1.5,1.5,0,0,0-1.5,1.5v14a1.5,1.5,0,0,0,1.5,1.5H30.5V23.5H7A1.5,1.5,0,0,0,5.5,25V39A1.5,1.5,0,0,0,7,40.5H30.5v2.6079H7a1.5,1.5,0,0,0-1.5,1.5v14a1.5,1.5,0,0,0,1.5,1.5H57a1.5,1.5,0,0,0,1.5-1.5v-14a1.5,1.5,0,0,0-1.5-1.5H33.5V40.5H57A1.5,1.5,0,0,0,58.5,39V25A1.5,1.5,0,0,0,57,23.5H33.5V20.8921ZM55.5,57.1079H8.5v-11h47ZM55.5,37.5H8.5v-11h47ZM8.5,6.8921h47v11H8.5Z"
     style="fill:url(#a)"
     id="path27" />
  <circle
     cx="48.1765"
     cy="12.3922"
     r="3"
     style="fill:url(#a)"
     id="circle29" />
  <circle
     cx="48.1765"
     cy="32.3676"
     r="3"
     style="fill:url(#a)"
     id="circle31" />
  <circle
     cx="48.1765"
     cy="51.9755"
     r="3"
     style="fill:url(#a)"
     id="circle33" />
  <path
     d="M21.2441,13.5H14a1.5,1.5,0,0,1,0-3h7.2441a1.5,1.5,0,1,1,0,3Z"
     style="fill:url(#a)"
     id="path35" />
  <path
     d="M21.2441,33.5H14a1.5,1.5,0,0,1,0-3h7.2441a1.5,1.5,0,1,1,0,3Z"
     style="fill:url(#a)"
     id="path37" />
  <path
     d="M21.2441,53.5H14a1.5,1.5,0,0,1,0-3h7.2441a1.5,1.5,0,1,1,0,3Z"
     style="fill:url(#a)"
     id="path39" />
  <path
     style="fill:#00ff00;stroke-width:0.0890125"
     d="M 8.5006954,12.37274 V 6.8984701 H 32 55.499305 V 12.37274 17.84701 H 32 8.5006954 Z M 49.48845,15.137254 c 0.564909,-0.276384 1.235388,-0.968182 1.495944,-1.543509 0.144953,-0.320067 0.191071,-0.600145 0.193983,-1.178084 0.0034,-0.681344 -0.02583,-0.818453 -0.288741,-1.352755 -0.353975,-0.719371 -0.908596,-1.2362473 -1.608115,-1.4986741 -0.67856,-0.2545642 -1.819846,-0.2165527 -2.429658,0.080922 -0.541778,0.2642872 -1.160923,0.8824421 -1.415306,1.4130411 -0.300934,0.6277 -0.34422,1.76675 -0.09251,2.434264 0.325458,0.863075 1.034784,1.514095 1.991563,1.82786 0.567325,0.186047 1.573228,0.100511 2.152836,-0.183065 z M 22.090078,13.293062 c 0.441894,-0.29254 0.65262,-0.717628 0.65262,-1.316498 0,-0.558682 -0.1634,-0.89541 -0.593812,-1.223701 l -0.326962,-0.249386 h -4.197446 -4.197446 l -0.326961,0.249386 c -0.432657,0.330003 -0.619244,0.71423 -0.619244,1.275168 0,0.702732 0.408,1.252449 1.085889,1.463067 0.126623,0.03934 2.015685,0.06417 4.197914,0.05517 l 3.967689,-0.01636 z"
     id="path691" />
  <path
     style="fill:#00ff00;stroke-width:0.0890125"
     d="M 8.5006954,32 V 26.570236 H 32 55.499305 V 32 37.429764 H 32 8.5006954 Z m 40.9537606,3.133109 c 0.656319,-0.317718 1.115111,-0.772279 1.434712,-1.421483 0.262681,-0.533579 0.29283,-0.673782 0.291102,-1.353704 -0.0016,-0.629237 -0.04176,-0.844143 -0.235701,-1.261218 -0.297175,-0.639081 -0.843544,-1.186161 -1.484945,-1.486871 -0.427076,-0.200228 -0.62331,-0.235702 -1.303852,-0.235702 -0.69725,0 -0.866922,0.03232 -1.308716,0.249267 -0.641607,0.315072 -1.248118,0.981315 -1.498932,1.646554 -0.269098,0.713732 -0.21766,1.826239 0.11401,2.465792 0.317305,0.611855 0.915905,1.166814 1.543778,1.431227 0.45105,0.189948 0.635716,0.217585 1.284654,0.19226 0.554032,-0.02162 0.867088,-0.08244 1.16389,-0.226122 z M 22.03757,33.310816 C 22.53013,32.97888 22.742698,32.583721 22.742698,32 c 0,-0.583721 -0.212568,-0.97888 -0.705128,-1.310816 l -0.300337,-0.202397 h -4.112755 -4.112755 l -0.294269,0.200278 c -0.997883,0.679154 -0.997883,1.946716 0,2.62587 l 0.294269,0.200278 h 4.112755 4.112755 z"
     id="path730" />
  <path
     style="fill:#00ff00;stroke-width:0.0890125"
     d="M 8.5006954,51.62726 V 46.15299 H 32 55.499305 v 5.47427 5.47427 H 32 8.5006954 Z m 40.1922336,3.329866 c 2.519065,-0.465674 3.394969,-3.505511 1.507214,-5.230813 -0.609179,-0.556755 -1.185682,-0.767728 -2.088877,-0.764429 -0.537732,0.002 -0.771484,0.05033 -1.201669,0.248611 -0.688172,0.317201 -1.308412,0.970198 -1.560962,1.643401 -0.264278,0.704467 -0.224154,1.826485 0.08805,2.46228 0.417606,0.85044 1.273266,1.488893 2.205616,1.645727 0.233452,0.03927 0.447141,0.07611 0.474868,0.08187 0.02773,0.0058 0.286817,-0.03323 0.575758,-0.08665 z M 22.148974,53.247137 c 0.423903,-0.323414 0.603206,-0.682345 0.607338,-1.215782 0.0044,-0.571265 -0.228834,-1.034872 -0.666366,-1.324417 l -0.357891,-0.236841 h -4.101076 -4.101076 l -0.32931,0.204765 c -0.47426,0.294895 -0.719766,0.737328 -0.719766,1.297107 0,0.679697 0.2616,1.109139 0.871249,1.430239 0.233867,0.123178 0.773654,0.137688 4.368432,0.117429 l 4.101592,-0.02311 z"
     id="path769" />
</svg>
