<?xml version="1.0" encoding="UTF-8" standalone="no"?>
<svg
   viewBox="0 0 64 64"
   version="1.1"
   id="svg41"
   sodipodi:docname="server.svg"
   inkscape:version="1.1.1 (eb90963e84, 2021-10-02)"
   xmlns:inkscape="http://www.inkscape.org/namespaces/inkscape"
   xmlns:sodipodi="http://sodipodi.sourceforge.net/DTD/sodipodi-0.dtd"
   xmlns="http://www.w3.org/2000/svg"
   xmlns:svg="http://www.w3.org/2000/svg">
  <sodipodi:namedview
     id="namedview43"
     pagecolor="#ffffff"
     bordercolor="#666666"
     borderopacity="1.0"
     inkscape:pageshadow="2"
     inkscape:pageopacity="0.0"
     inkscape:pagecheckerboard="0"
     showgrid="false"
     inkscape:zoom="11.234375"
     inkscape:cx="32.044506"
     inkscape:cy="31.198887"
     inkscape:window-width="2304"
     inkscape:window-height="1355"
     inkscape:window-x="0"
     inkscape:window-y="0"
     inkscape:window-maximized="1"
     inkscape:current-layer="svg41" />
  <defs
     id="defs11">
    <linearGradient
       id="a"
       x1="58.8646"
       y1="42.1354"
       x2="5.1354"
       y2="95.8646"
       gradientTransform="translate(0 -37)"
       gradientUnits="userSpaceOnUse">
      <stop
         offset="0"
         stop-color="#3c5eab"
         id="stop2" />
      <stop
         offset="0.2347"
         stop-color="#3959a2"
         id="stop4" />
      <stop
         offset="0.6172"
         stop-color="#304b8a"
         id="stop6" />
      <stop
         offset="1"
         stop-color="#253a6b"
         id="stop8" />
    </linearGradient>
  </defs>
  <path
     d="M57,20.8921a1.5,1.5,0,0,0,1.5-1.5v-14a1.5,1.5,0,0,0-1.5-1.5H7a1.5,1.5,0,0,0-1.5,1.5v14a1.5,1.5,0,0,0,1.5,1.5H30.5V23.5H7A1.5,1.5,0,0,0,5.5,25V39A1.5,1.5,0,0,0,7,40.5H30.5v2.6079H7a1.5,1.5,0,0,0-1.5,1.5v14a1.5,1.5,0,0,0,1.5,1.5H57a1.5,1.5,0,0,0,1.5-1.5v-14a1.5,1.5,0,0,0-1.5-1.5H33.5V40.5H57A1.5,1.5,0,0,0,58.5,39V25A1.5,1.5,0,0,0,57,23.5H33.5V20.8921ZM55.5,57.1079H8.5v-11h47ZM55.5,37.5H8.5v-11h47ZM8.5,6.8921h47v11H8.5Z"
     style="fill:#231f20"
     id="path13" />
  <circle
     cx="48.1765"
     cy="12.3922"
     r="3"
     style="fill:#231f20"
     id="circle15" />
  <circle
     cx="48.1765"
     cy="32.3676"
     r="3"
     style="fill:#231f20"
     id="circle17" />
  <circle
     cx="48.1765"
     cy="51.9755"
     r="3"
     style="fill:#231f20"
     id="circle19" />
  <path
     d="M21.2441,13.5H14a1.5,1.5,0,0,1,0-3h7.2441a1.5,1.5,0,1,1,0,3Z"
     style="fill:#231f20"
     id="path21" />
  <path
     d="M21.2441,33.5H14a1.5,1.5,0,0,1,0-3h7.2441a1.5,1.5,0,1,1,0,3Z"
     style="fill:#231f20"
     id="path23" />
  <path
     d="M21.2441,53.5H14a1.5,1.5,0,0,1,0-3h7.2441a1.5,1.5,0,1,1,0,3Z"
     style="fill:#231f20"
     id="path25" />
  <path
     d="M57,20.8921a1.5,1.5,0,0,0,1.5-1.5v-14a1.5,1.5,0,0,0-1.5-1.5H7a1.5,1.5,0,0,0-1.5,1.5v14a1.5,1.5,0,0,0,1.5,1.5H30.5V23.5H7A1.5,1.5,0,0,0,5.5,25V39A1.5,1.5,0,0,0,7,40.5H30.5v2.6079H7a1.5,1.5,0,0,0-1.5,1.5v14a1.5,1.5,0,0,0,1.5,1.5H57a1.5,1.5,0,0,0,1.5-1.5v-14a1.5,1.5,0,0,0-1.5-1.5H33.5V40.5H57A1.5,1.5,0,0,0,58.5,39V25A1.5,1.5,0,0,0,57,23.5H33.5V20.8921ZM55.5,57.1079H8.5v-11h47ZM55.5,37.5H8.5v-11h47ZM8.5,6.8921h47v11H8.5Z"
     style="fill:url(#a)"
     id="path27" />
  <circle
     cx="48.1765"
     cy="12.3922"
     r="3"
     style="fill:url(#a)"
     id="circle29" />
  <circle
     cx="48.1765"
     cy="32.3676"
     r="3"
     style="fill:url(#a)"
     id="circle31" />
  <circle
     cx="48.1765"
     cy="51.9755"
     r="3"
     style="fill:url(#a)"
     id="circle33" />
  <path
     d="M21.2441,13.5H14a1.5,1.5,0,0,1,0-3h7.2441a1.5,1.5,0,1,1,0,3Z"
     style="fill:url(#a)"
     id="path35" />
  <path
     d="M21.2441,33.5H14a1.5,1.5,0,0,1,0-3h7.2441a1.5,1.5,0,1,1,0,3Z"
     style="fill:url(#a)"
     id="path37" />
  <path
     d="M21.2441,53.5H14a1.5,1.5,0,0,1,0-3h7.2441a1.5,1.5,0,1,1,0,3Z"
     style="fill:url(#a)"
     id="path39" />
  <path
     style="fill:#ffffff;stroke-width:0.0890125"
     d="M 8.5452017,12.417246 V 6.9429764 H 32 55.454798 v 5.4742696 5.47427 H 32 8.5452017 Z m 40.9902643,2.694171 c 0.537138,-0.279199 1.110174,-0.859328 1.386329,-1.403489 0.301891,-0.594873 0.343519,-1.738626 0.08795,-2.416431 C 50.745717,10.591267 50.22891,10.037075 49.510112,9.6833823 48.976865,9.4209925 48.837355,9.391086 48.157356,9.393394 c -0.918295,0.00312 -1.522909,0.2448622 -2.129488,0.851442 -0.606189,0.606189 -0.848324,1.211327 -0.851442,2.127904 -0.0022,0.646216 0.03389,0.834529 0.247319,1.290681 0.308374,0.659068 0.975593,1.305988 1.602911,1.554148 0.677668,0.268078 1.887313,0.216896 2.50881,-0.106152 z M 22.036481,13.308629 c 1.013706,-0.594071 0.969915,-2.121356 -0.07724,-2.69398 -0.259269,-0.141777 -0.646338,-0.155678 -4.33476,-0.155678 -4.520237,0 -4.366816,-0.01986 -4.862043,0.629415 -0.528998,0.693553 -0.300418,1.816298 0.455924,2.239408 0.353968,0.198016 0.379682,0.199189 4.398299,0.200644 l 4.042249,0.0015 z"
     id="path97" />
  <path
     style="fill:#ffffff;stroke-width:0.0890125"
     d="M 8.5452017,32 V 26.52573 H 32 55.454798 V 32 37.47427 H 32 8.5452017 Z m 41.0087633,3.068466 c 0.602925,-0.296819 1.064935,-0.769512 1.383023,-1.415008 0.168288,-0.341503 0.200395,-0.551045 0.198798,-1.297408 -0.0016,-0.753712 -0.03419,-0.955724 -0.212542,-1.318172 -0.434742,-0.883458 -1.320421,-1.526593 -2.282016,-1.657084 -1.361532,-0.184764 -2.601671,0.457327 -3.203657,1.658718 -0.227677,0.454377 -0.258275,0.610312 -0.258339,1.316538 -5.7e-5,0.628109 0.04089,0.890991 0.18962,1.217306 0.215094,0.471922 0.800118,1.143376 1.224984,1.405957 0.830053,0.513001 2.026006,0.54902 2.960129,0.08915 z M 21.723003,33.46908 C 22.303749,33.307745 22.787204,32.640358 22.787204,32 c 0,-0.640358 -0.483455,-1.307745 -1.064201,-1.46908 -0.418873,-0.116366 -7.778176,-0.116366 -8.197049,0 -0.357901,0.09943 -0.829227,0.545876 -0.96973,0.918546 -0.29476,0.781828 0.173095,1.786787 0.938458,2.01582 0.363992,0.108923 7.83749,0.11237 8.228321,0.0038 z"
     id="path136" />
  <path
     style="fill:#ffffff;stroke-width:0.0890125"
     d="m 8.5452017,51.582754 v -5.47427 H 32 55.454798 v 5.47427 5.47427 H 32 8.5452017 Z m 40.9761373,3.126249 c 0.628674,-0.307582 1.237588,-0.979168 1.486587,-1.639595 0.156756,-0.415764 0.184609,-0.644301 0.154073,-1.264123 -0.04603,-0.934361 -0.298705,-1.481282 -0.958321,-2.074334 -0.649259,-0.583739 -1.277959,-0.801003 -2.185105,-0.755121 -1.183508,0.05986 -2.037153,0.606726 -2.539304,1.626743 -0.838753,1.703747 -0.0094,3.701056 1.774197,4.27295 0.643722,0.206398 1.657851,0.131935 2.267873,-0.16652 z M 21.959238,53.385351 c 1.045795,-0.571879 1.087168,-2.144885 0.07136,-2.713145 -0.354113,-0.198097 -0.378082,-0.19918 -4.40612,-0.19918 -4.038048,0 -4.051121,5.96e-4 -4.404305,0.200628 -0.52234,0.295837 -0.773601,0.782599 -0.734083,1.422118 0.04594,0.743487 0.488078,1.264264 1.193819,1.406162 0.186759,0.03755 2.061955,0.06171 4.167101,0.05368 3.459518,-0.01319 3.854911,-0.02956 4.112228,-0.170267 z"
     id="path175" />
  <path
     style="fill:#ffffff;stroke-width:0.0890125"
     d="M 8.5006954,12.37274 V 6.8984701 H 32 55.499305 V 12.37274 17.84701 H 32 8.5006954 Z m 40.7931456,2.842842 c 0.581543,-0.200481 1.329859,-0.902658 1.636111,-1.535234 0.208009,-0.429651 0.245453,-0.621286 0.246801,-1.263102 0.002,-0.958007 -0.274641,-1.618366 -0.93979,-2.243227 -0.641253,-0.602412 -1.247151,-0.8109131 -2.21471,-0.7621232 -0.912136,0.045995 -1.396492,0.2510488 -1.986385,0.8409412 -0.578328,0.578329 -0.792996,1.07616 -0.84245,1.953709 -0.05016,0.89008 0.114308,1.450449 0.609612,2.077055 0.80802,1.022222 2.172404,1.386487 3.490811,0.931981 z m -27.20376,-1.92252 c 0.447508,-0.296259 0.652617,-0.718478 0.652617,-1.34342 0,-0.612145 -0.247931,-1.011945 -0.801831,-1.292989 l -0.399838,-0.202875 -4.057104,0.02485 -4.057104,0.02485 -0.326856,0.249386 c -0.422957,0.322709 -0.614248,0.703243 -0.614248,1.221918 0,0.753595 0.440943,1.35006 1.121153,1.516587 0.153495,0.03758 2.044516,0.06162 4.202268,0.05343 l 3.923185,-0.01489 z"
     id="path187" />
  <path
     style="fill:#ffffff;stroke-width:0.0890125"
     d="M 8.5006954,32 V 26.570236 H 32 55.499305 V 32 37.429764 H 32 8.5006954 Z M 49.45857,35.125293 c 0.634674,-0.304448 1.106048,-0.760731 1.406001,-1.360989 0.248135,-0.496565 0.273041,-0.624654 0.272251,-1.400218 -7.21e-4,-0.707602 -0.0365,-0.929801 -0.209118,-1.298717 -0.272478,-0.582335 -0.871123,-1.172516 -1.481251,-1.460311 -0.416471,-0.196448 -0.609182,-0.230419 -1.290681,-0.227523 -0.703298,0.003 -0.864638,0.03515 -1.321398,0.263372 -0.652543,0.326052 -1.23617,0.965752 -1.48625,1.629045 -0.278432,0.73849 -0.221714,1.836155 0.128044,2.478065 0.346467,0.635869 0.908768,1.157446 1.529744,1.418954 0.453713,0.191069 0.631707,0.21729 1.283379,0.189057 0.547453,-0.02372 0.870684,-0.0875 1.169279,-0.230735 z m -27.421,-1.814477 C 22.53013,32.97888 22.742698,32.583721 22.742698,32 c 0,-0.583721 -0.212568,-0.97888 -0.705128,-1.310816 l -0.300337,-0.202397 h -4.112755 -4.112755 l -0.294269,0.200278 c -0.997883,0.679154 -0.997883,1.946716 0,2.62587 l 0.294269,0.200278 h 4.112755 4.112755 z"
     id="path226" />
  <path
     style="fill:#ffffff;stroke-width:0.0890125"
     d="M 8.5006954,51.62726 V 46.15299 H 32 55.499305 v 5.47427 5.47427 H 32 8.5006954 Z m 40.3671766,3.291988 c 0.837829,-0.136434 1.652834,-0.812053 2.079179,-1.723586 0.290324,-0.62072 0.320024,-1.57885 0.0713,-2.300106 -0.313676,-0.909593 -1.242085,-1.679031 -2.299577,-1.905823 -1.388747,-0.297832 -2.961495,0.622651 -3.421677,2.002608 -0.203014,0.608782 -0.134059,1.732189 0.141735,2.309141 0.401436,0.83979 1.283333,1.504673 2.203474,1.66125 0.421948,0.0718 0.544257,0.06746 1.225569,-0.04348 z M 21.98346,53.337931 c 0.521083,-0.295132 0.759238,-0.699012 0.759238,-1.287573 0,-0.625021 -0.205131,-1.047198 -0.652752,-1.34342 l -0.357891,-0.236841 h -4.107577 -4.107576 l -0.357892,0.236841 c -0.794466,0.525754 -0.919909,1.788984 -0.238856,2.405329 0.475427,0.430255 0.44751,0.427723 4.704324,0.42675 3.98834,-9.13e-4 4.007083,-0.0018 4.358982,-0.201086 z"
     id="path265" />
  <path
     style="fill:#ffffff;stroke-width:0.0890125"
     d="M 8.5006954,51.62726 V 46.15299 H 32 55.499305 v 5.47427 5.47427 H 32 8.5006954 Z m 40.3671766,3.291988 c 0.494436,-0.08052 1.151767,-0.455788 1.528202,-0.872455 1.139559,-1.261357 1.049021,-3.23084 -0.198893,-4.326522 -0.771421,-0.677318 -1.758826,-0.924297 -2.71785,-0.679813 -1.047809,0.267118 -1.788949,0.929628 -2.169485,1.939319 -0.231256,0.613596 -0.158814,1.734994 0.15108,2.338721 0.435985,0.849374 1.290338,1.492198 2.186207,1.644925 0.41723,0.07113 0.539932,0.06669 1.220739,-0.04417 z M 21.939767,53.340751 c 0.544546,-0.278249 0.739066,-0.579268 0.78504,-1.214839 0.04588,-0.63434 -0.166943,-1.089991 -0.670177,-1.434812 L 21.732098,50.470097 H 17.6245 13.516902 l -0.357892,0.236841 c -0.44762,0.296222 -0.652751,0.718399 -0.652751,1.34342 0,0.611385 0.248118,1.012379 0.798439,1.290393 0.393262,0.19867 0.427943,0.200278 4.31978,0.200278 3.893169,0 3.92635,-0.0015 4.315289,-0.200278 z"
     id="path332" />
  <path
     style="fill:#ff0000;stroke-width:0.0890125"
     d="M 8.5006954,51.62726 V 46.15299 H 32 55.499305 v 5.47427 5.47427 H 32 8.5006954 Z M 49.47473,54.714542 c 0.548122,-0.242461 1.180604,-0.894111 1.467594,-1.512072 0.330648,-0.711966 0.330662,-1.710154 3.4e-5,-2.431511 -1.079253,-2.354692 -4.295035,-2.441791 -5.469116,-0.14813 -0.345985,0.675908 -0.394783,1.687343 -0.116956,2.424129 0.6105,1.619024 2.499296,2.38381 4.118444,1.667584 z m -27.568845,-1.34312 c 0.496912,-0.22567 0.770509,-0.634279 0.819391,-1.223734 0.04879,-0.58837 -0.08112,-0.917474 -0.517961,-1.312133 -0.297218,-0.268518 -0.41305,-0.311118 -0.99099,-0.364461 -0.359938,-0.03322 -2.239634,-0.04704 -4.177103,-0.0307 l -3.522669,0.0297 -0.322379,0.221003 c -0.177308,0.121551 -0.404625,0.367339 -0.505147,0.546194 -0.320386,0.570051 -0.201157,1.492846 0.244117,1.889389 0.43352,0.386076 0.669547,0.406434 4.735841,0.408484 3.58846,0.0018 3.898766,-0.01018 4.2369,-0.163745 z"
     id="path371" />
  <path
     style="fill:#ff0000;stroke-width:0.0890125"
     d="M 8.5006954,32 V 26.570236 H 32 55.499305 V 32 37.429764 H 32 8.5006954 Z m 41.1089916,3.027732 c 0.610249,-0.325913 1.061198,-0.805675 1.344703,-1.430621 0.139091,-0.306605 0.179831,-0.586486 0.181347,-1.245837 0.0017,-0.734573 -0.02884,-0.912184 -0.224122,-1.304069 -0.276096,-0.554053 -0.971333,-1.221582 -1.52939,-1.468438 -1.191973,-0.527266 -2.728506,-0.147305 -3.580264,0.885346 -0.465124,0.563904 -0.650738,1.193677 -0.610084,2.069962 0.04243,0.914447 0.314426,1.493462 0.984653,2.096054 0.635218,0.571116 1.184071,0.759744 2.112761,0.726108 0.660198,-0.02391 0.828445,-0.06577 1.320396,-0.328505 z M 22.03757,33.310816 C 22.53013,32.97888 22.742698,32.583721 22.742698,32 c 0,-0.583721 -0.212568,-0.97888 -0.705128,-1.310816 l -0.300337,-0.202397 h -4.112755 -4.112755 l -0.294269,0.200278 c -0.997883,0.679154 -0.997883,1.946716 0,2.62587 l 0.294269,0.200278 h 4.112755 4.112755 z"
     id="path447" />
  <path
     style="fill:#00ffff;stroke-width:0.0890125"
     d="M 8.5006954,12.37274 V 6.8984701 H 32 55.499305 V 12.37274 17.84701 H 32 8.5006954 Z m 40.7931456,2.842842 c 0.584227,-0.201406 1.330726,-0.90305 1.633381,-1.535234 0.202802,-0.423612 0.243504,-0.630603 0.248729,-1.264906 0.0056,-0.684465 -0.02232,-0.816452 -0.286783,-1.353705 C 50.570476,10.414307 50.115142,9.9622332 49.45318,9.6360292 49.112346,9.4680719 48.900671,9.4354536 48.155772,9.4361036 c -0.759758,6.587e-4 -0.948791,0.031359 -1.290682,0.2095869 -0.545488,0.2843632 -1.123916,0.8559655 -1.408482,1.3918615 -0.210066,0.395596 -0.23644,0.543995 -0.237291,1.335188 -0.0011,1.042411 0.178314,1.519145 0.809268,2.150099 0.861104,0.861103 2.047045,1.112708 3.265256,0.692743 z M 22.054774,13.3089 c 0.503131,-0.344904 0.715911,-0.800553 0.670033,-1.434812 -0.04602,-0.636275 -0.2402,-0.936106 -0.788432,-1.217435 l -0.395346,-0.202875 -4.057104,0.02485 -4.057104,0.02485 -0.326856,0.249386 c -0.477796,0.36455 -0.619446,0.695728 -0.577737,1.350748 0.05032,0.790199 0.419412,1.22788 1.162681,1.378727 0.208488,0.04231 2.104461,0.07033 4.213273,0.06225 l 3.834204,-0.01468 z"
     id="path486" />
  <path
     style="fill:#00ffff;stroke-width:0.0890125"
     d="M 8.5006954,32 V 26.570236 H 32 55.499305 V 32 37.429764 H 32 8.5006954 Z m 41.0213666,3.126087 c 0.575735,-0.299385 1.170655,-0.887799 1.405715,-1.390343 0.177068,-0.378557 0.208013,-0.584723 0.20709,-1.379694 -0.0013,-1.123516 -0.122903,-1.452438 -0.779797,-2.109332 -0.637022,-0.637021 -1.14512,-0.863666 -2.021273,-0.901618 -0.565923,-0.02451 -0.817204,0.0086 -1.224108,0.161329 -0.696814,0.26154 -1.30329,0.763104 -1.624293,1.343311 -0.253247,0.45774 -0.267037,0.535529 -0.267037,1.50631 0,0.833806 0.03115,1.081421 0.167967,1.335188 0.404433,0.750133 1.013625,1.305731 1.718919,1.567696 0.534728,0.198612 1.926522,0.122108 2.416817,-0.132847 z m -27.393165,-1.81184 c 0.445117,-0.329089 0.613801,-0.688255 0.613801,-1.306921 0,-0.643637 -0.138089,-0.955993 -0.567395,-1.283441 l -0.310852,-0.237098 h -4.21337 -4.213371 l -0.322689,0.219273 c -0.366869,0.249294 -0.697775,0.856496 -0.697775,1.280396 0,0.423939 0.224026,0.884768 0.595555,1.225075 l 0.329359,0.301682 h 4.258811 4.258811 z"
     id="path562" />
  <path
     style="fill:#ffff00;stroke-width:0.0890125"
     d="M 8.5006954,51.62726 V 46.15299 H 32 55.499305 v 5.47427 5.47427 H 32 8.5006954 Z m 40.7931456,3.197979 c 0.577803,-0.197952 1.32822,-0.900174 1.639634,-1.534327 0.216347,-0.44056 0.248722,-0.610769 0.248722,-1.307602 0,-0.677141 -0.03574,-0.876873 -0.230927,-1.290681 -0.294488,-0.624317 -0.8805,-1.210329 -1.504817,-1.504817 -0.413808,-0.195191 -0.613541,-0.230927 -1.290681,-0.230927 -0.695197,0 -0.867505,0.0326 -1.303278,0.246606 -0.557042,0.273556 -1.112929,0.823989 -1.427534,1.413529 -0.180141,0.33757 -0.206601,0.512551 -0.206601,1.36629 0,0.919116 0.0162,1.008378 0.264202,1.456138 0.737153,1.330884 2.306245,1.90141 3.81128,1.385791 z M 21.986108,53.362996 c 0.498522,-0.24133 0.75659,-0.709984 0.75659,-1.373972 0,-0.603358 -0.155013,-0.934826 -0.593709,-1.269541 l -0.326859,-0.249386 -4.177817,-0.02561 -4.177817,-0.02561 -0.309672,0.236198 c -0.474689,0.362063 -0.649848,0.714638 -0.650233,1.30884 -5.69e-4,0.874977 0.301631,1.323981 1.003288,1.490687 0.157884,0.03751 2.046876,0.0723 4.197762,0.07731 3.738971,0.0087 3.92685,0.0013 4.278467,-0.168922 z"
     id="path601" />
  <path
     style="fill:#ffff00;stroke-width:0.0890125"
     d="M 8.5006954,32 V 26.570236 H 32 55.499305 V 32 37.429764 H 32 8.5006954 Z M 49.6107,35.124816 c 0.508803,-0.262662 1.140604,-0.902618 1.352992,-1.370457 0.135864,-0.299275 0.17009,-0.580642 0.17009,-1.398309 0,-1.258261 -0.10719,-1.535202 -0.865854,-2.237061 -0.674923,-0.624388 -1.125635,-0.789663 -2.150266,-0.788495 -0.908303,10e-4 -1.445767,0.209239 -2.106745,0.816116 -0.652844,0.599409 -0.835325,1.082073 -0.835325,2.20944 0,1.124256 0.176602,1.587081 0.855847,2.242939 0.699883,0.675786 1.05343,0.796892 2.213345,0.758177 0.797675,-0.02663 1.05082,-0.06969 1.365916,-0.23235 z M 22.27825,33.25078 c 0.374082,-0.341671 0.464575,-0.599835 0.463862,-1.323334 -6.23e-4,-0.641698 -0.122471,-0.920222 -0.549474,-1.256102 -0.230078,-0.180979 -0.318416,-0.184557 -4.556849,-0.184557 h -4.322223 l -0.304756,0.267579 c -0.396798,0.348394 -0.591564,0.772187 -0.591564,1.287191 0,0.491429 0.09078,0.690772 0.518158,1.137859 l 0.319085,0.333797 h 4.368217 4.368217 z"
     id="path677" />
  <path
     style="fill:#00ffff;stroke-width:0.0890125"
     d="M 8.5006954,12.37274 V 6.8984701 H 32 55.499305 V 12.37274 17.84701 H 32 8.5006954 Z m 40.9639456,2.807096 c 0.541525,-0.254776 1.240496,-0.94612 1.501346,-1.484966 0.308584,-0.63745 0.342282,-1.685436 0.07686,-2.39028 -0.266039,-0.706476 -1.08981,-1.5500739 -1.723513,-1.7649952 -0.689905,-0.2339822 -1.848648,-0.2010534 -2.428722,0.069019 -0.592885,0.2760372 -1.222927,0.9060782 -1.498963,1.4989632 -0.259775,0.557956 -0.297806,1.631015 -0.08339,2.353016 0.22755,0.766247 1.071634,1.575116 1.941745,1.860735 0.546254,0.179312 1.687792,0.10638 2.214644,-0.141492 z M 22.096534,13.341567 c 0.467896,-0.356882 0.645448,-0.713405 0.645831,-1.296829 3.56e-4,-0.594828 -0.09083,-0.87391 -0.372517,-1.13971 -0.504162,-0.475724 -0.406903,-0.4667 -4.863711,-0.451242 l -4.139461,0.01436 -0.274437,0.229742 c -0.457379,0.382889 -0.584751,0.646252 -0.585394,1.210398 -9.65e-4,0.846601 0.332513,1.378853 0.978551,1.561831 0.182851,0.05179 1.962705,0.09155 4.308706,0.09627 l 3.997161,0.008 z"
     id="path716" />
  <path
     style="fill:#00ffff;stroke-width:0.0890125"
     d="M 8.5006954,32 V 26.570236 H 32 55.499305 V 32 37.429764 H 32 8.5006954 Z m 41.1704806,3.142867 c 0.4416,-0.232488 1.165913,-0.993507 1.338326,-1.406148 0.08784,-0.21023 0.128189,-0.649082 0.128189,-1.394213 0,-1.302634 -0.123408,-1.638404 -0.829045,-2.255677 -0.706896,-0.618377 -0.949826,-0.706785 -2.038821,-0.741976 -0.86393,-0.02792 -0.998523,-0.01011 -1.4242,0.188409 -0.661333,0.308424 -1.176305,0.78825 -1.453038,1.353872 -0.224788,0.459451 -0.235534,0.541869 -0.205703,1.57768 0.02869,0.996164 0.05271,1.12902 0.271333,1.500907 0.292748,0.497966 0.8562,1.019734 1.350172,1.250287 0.536008,0.250171 2.336021,0.204183 2.862787,-0.07314 z M 22.39144,33.196879 c 0.299462,-0.308815 0.307486,-0.336361 0.33766,-1.15898 l 0.03091,-0.842647 -0.354233,-0.354232 -0.354232,-0.354233 h -4.404587 c -4.336065,0 -4.408275,0.0029 -4.641607,0.186439 -0.372837,0.293274 -0.588102,0.802952 -0.588102,1.392435 0,0.53479 0.08446,0.730183 0.519874,1.202767 l 0.225533,0.244785 h 4.461017 4.461018 z"
     id="path792" />
  <path
     style="fill:#ffffff;stroke-width:0.0890125"
     d="M 8.5006954,51.62726 V 46.15299 H 32 55.499305 v 5.47427 5.47427 H 32 8.5006954 Z m 40.5958056,3.284491 c 0.612621,-0.180555 1.251543,-0.663293 1.635977,-1.236064 0.425939,-0.63461 0.520875,-1.012572 0.478046,-1.903201 -0.04422,-0.91963 -0.317525,-1.5111 -0.959958,-2.077511 -0.72656,-0.640582 -0.994961,-0.737147 -2.050288,-0.737647 -1.104527,-5.26e-4 -1.524192,0.158109 -2.196273,0.83019 -0.646565,0.646565 -0.828413,1.128573 -0.828413,2.195792 0,0.75396 0.03245,0.958208 0.212116,1.335188 0.650033,1.363898 2.211301,2.034601 3.708793,1.593253 z M 22.029122,53.376228 c 0.508592,-0.272761 0.661698,-0.55884 0.699477,-1.306976 0.03706,-0.733959 -0.0633,-0.981041 -0.570419,-1.40423 l -0.272974,-0.227798 -4.230956,-0.01843 -4.230955,-0.01843 -0.286175,0.211579 c -0.520876,0.3851 -0.653575,0.707718 -0.617534,1.501351 0.02724,0.599869 0.06422,0.737066 0.254061,0.942717 0.441646,0.478414 0.435212,0.477776 4.85222,0.481533 3.820281,0.0033 4.116647,-0.0076 4.403255,-0.161316 z"
     id="path831" />
  <path
     style="fill:#ffffff;stroke-width:0.0890125"
     d="M 8.5006954,32 V 26.570236 H 32 55.499305 V 32 37.429764 H 32 8.5006954 Z m 41.2066726,3.169266 c 0.40746,-0.218918 1.158136,-0.9989 1.3091,-1.360207 0.08154,-0.195152 0.121223,-0.67524 0.121223,-1.466553 0,-1.444706 -0.111981,-1.739163 -0.905602,-2.381313 -0.66612,-0.538982 -0.979241,-0.631569 -2.135927,-0.631569 -0.818433,0 -0.983546,0.02714 -1.386422,0.227903 -0.556923,0.277527 -1.110067,0.79959 -1.354179,1.278091 -0.155294,0.3044 -0.181424,0.521674 -0.179754,1.494633 0.0023,1.336008 0.10545,1.651101 0.752309,2.297961 0.672649,0.672649 0.961446,0.763928 2.316668,0.732221 0.91761,-0.02147 1.220391,-0.06104 1.462584,-0.191167 z M 22.452606,33.214327 c 0.241686,-0.275265 0.266635,-0.368474 0.315686,-1.179416 l 0.05326,-0.88053 -0.324529,-0.333797 -0.32453,-0.333797 h -4.501767 c -5.016848,0 -4.740191,-0.03408 -5.076646,0.625424 -0.125832,0.24665 -0.176834,0.523662 -0.176834,0.960455 0,0.565976 0.02461,0.646061 0.315621,1.02719 l 0.315622,0.413357 h 4.570845 4.570847 z"
     id="path907" />
  <path
     style="fill:#ffffff;stroke-width:0.0890125"
     d="M 8.5006954,12.37274 V 6.8984701 H 32 55.499305 V 12.37274 17.84701 H 32 8.5006954 Z m 40.9012516,2.814842 c 0.556387,-0.246613 1.232843,-0.896765 1.539519,-1.479654 0.20418,-0.388079 0.234582,-0.553332 0.237446,-1.290682 0.0029,-0.757905 -0.02317,-0.897834 -0.251785,-1.349002 C 50.628034,10.477981 50.097312,9.934481 49.535466,9.6430771 49.186888,9.4622855 49.007852,9.4353268 48.155772,9.4353268 c -1.140371,0 -1.410808,0.1038908 -2.122165,0.8152472 -0.713113,0.713113 -0.8158,0.981519 -0.811902,2.122166 0.0039,1.133211 0.09898,1.423733 0.668253,2.041324 0.706712,0.76669 1.371729,1.043723 2.399333,0.99951 0.444149,-0.01911 0.816557,-0.09475 1.112656,-0.225992 z M 22.170436,13.26245 c 0.459332,-0.376387 0.60577,-0.76678 0.554339,-1.477815 -0.03074,-0.42503 -0.0858,-0.574674 -0.289773,-0.787573 -0.525023,-0.548006 -0.435699,-0.538361 -4.957495,-0.535278 l -4.125629,0.0028 -0.222532,0.197639 c -0.507741,0.450946 -0.623094,0.683373 -0.622949,1.255192 2.23e-4,0.86098 0.371729,1.400811 1.078943,1.567784 0.165337,0.03904 2.078963,0.07507 4.252502,0.08008 l 3.95189,0.0091 z"
     id="path946" />
</svg>
