<?xml version="1.0" encoding="UTF-8" standalone="no"?>
<!-- Uploaded to: SVG Repo, www.svgrepo.com, Generator: SVG Repo Mixer Tools -->

<svg
   height="63.999935"
   width="63.999996"
   version="1.1"
   id="Layer_1"
   viewBox="0 0 40.960718 40.960678"
   xml:space="preserve"
   sodipodi:docname="server-up.svg"
   inkscape:version="1.3.2 (091e20ef0f, 2023-11-25)"
   xmlns:inkscape="http://www.inkscape.org/namespaces/inkscape"
   xmlns:sodipodi="http://sodipodi.sourceforge.net/DTD/sodipodi-0.dtd"
   xmlns="http://www.w3.org/2000/svg"
   xmlns:svg="http://www.w3.org/2000/svg"><defs
   id="defs3" /><sodipodi:namedview
   id="namedview3"
   pagecolor="#ffffff"
   bordercolor="#000000"
   borderopacity="0.25"
   inkscape:showpageshadow="2"
   inkscape:pageopacity="0.0"
   inkscape:pagecheckerboard="true"
   inkscape:deskcolor="#d1d1d1"
   inkscape:zoom="17.343768"
   inkscape:cx="32.057624"
   inkscape:cy="31.999967"
   inkscape:window-width="2304"
   inkscape:window-height="1355"
   inkscape:window-x="0"
   inkscape:window-y="0"
   inkscape:window-maximized="1"
   inkscape:current-layer="Layer_1" />
<circle
   style="fill:#2ec27e;stroke-width:0.0800001"
   cx="20.480379"
   cy="20.480339"
   r="20.480339"
   id="circle1" />
<path
   style="fill:#26a269;stroke-width:0.0800001"
   d="M 9.7199696,31.240111 C 2.3526023,23.872584 1.7720417,12.288652 7.9778879,4.2563242 7.2904472,4.7873647 6.6290065,5.3679253 5.9984459,5.9984859 c -7.9979279,7.9979281 -7.9979279,20.9652211 0,28.9630681 7.9979281,7.997848 20.9652211,7.997928 28.9630681,0 0.630481,-0.63048 1.211042,-1.292001 1.742162,-1.979442 -8.032248,6.205927 -19.616179,5.625366 -26.9837064,-1.742001 z"
   id="path1" />
<path
   style="fill:#3d3846;stroke-width:0.0800001"
   d="m 20.48014,14.578094 v 0 c 1.207281,0 2.407683,-0.16408 3.575844,-0.46872 4.436884,-1.157041 9.323369,-0.438881 12.368972,0.26408 1.623921,0.374881 2.560962,2.077522 2.004722,3.648644 l -1.714882,4.842805 c -0.39416,1.112961 -1.464641,1.841681 -2.644562,1.800161 l -7.812568,-0.27512 c -1.316641,-0.04632 -2.429523,-0.990081 -2.690243,-2.281522 l -0.39472,-1.954482 c -0.2588,-1.281441 -1.385122,-2.202802 -2.692323,-2.202562 v 0 0 c -1.307441,0 -2.433682,0.921521 -2.692482,2.203122 l -0.394641,1.954002 c -0.2608,1.291361 -1.373681,2.235042 -2.690243,2.281522 l -7.8125672,0.27512 c -1.1799212,0.0416 -2.2505622,-0.68712 -2.6445626,-1.800161 L 2.5310025,18.022178 c -0.5564006,-1.571122 0.3808004,-3.273683 2.004722,-3.648644 3.045603,-0.702961 7.9320075,-1.421121 12.3689725,-0.26408 1.167761,0.30456 2.368162,0.46864 3.575443,0.46864 z"
   id="path2" />
<path
   style="fill:#3d3846;stroke-width:0.0800001"
   d="m 20.50238,31.730671 c -0.22528,0 -0.4516,-0.0042 -0.67912,-0.01288 -3.563524,-0.13472 -6.680007,-1.321201 -8.550569,-3.255283 -0.29152,-0.30144 -0.28336,-0.782001 0.01792,-1.073361 0.30144,-0.2916 0.782001,-0.28336 1.073361,0.01792 3.337523,3.450963 11.458091,3.785764 15.516015,0.639441 0.207921,-0.161121 0.602241,-0.530881 0.736641,-0.659681 0.30256,-0.29008 0.782961,-0.28008 1.073281,0.02256 0.290161,0.30264 0.280081,0.783121 -0.02256,1.073281 -0.05528,0.05296 -0.54888,0.524721 -0.857041,0.763681 -2.055042,1.593121 -5.053445,2.484322 -8.307928,2.484322 z"
   id="path3" />
</svg>
