<?xml version="1.0" encoding="UTF-8" standalone="no"?>
<!-- Uploaded to: SVG Repo, www.svgrepo.com, Generator: SVG Repo Mixer Tools -->

<svg
   height="63.999935"
   width="63.999996"
   version="1.1"
   id="Layer_1"
   viewBox="0 0 40.960718 40.960678"
   xml:space="preserve"
   sodipodi:docname="server.svg"
   inkscape:version="1.3.2 (091e20ef0f, 2023-11-25)"
   xmlns:inkscape="http://www.inkscape.org/namespaces/inkscape"
   xmlns:sodipodi="http://sodipodi.sourceforge.net/DTD/sodipodi-0.dtd"
   xmlns="http://www.w3.org/2000/svg"
   xmlns:svg="http://www.w3.org/2000/svg"><defs
   id="defs5">
	
	
</defs><sodipodi:namedview
   id="namedview5"
   pagecolor="#ffffff"
   bordercolor="#000000"
   borderopacity="0.25"
   inkscape:showpageshadow="2"
   inkscape:pageopacity="0.0"
   inkscape:pagecheckerboard="true"
   inkscape:deskcolor="#d1d1d1"
   inkscape:zoom="17.343768"
   inkscape:cx="32.028796"
   inkscape:cy="31.999967"
   inkscape:window-width="2304"
   inkscape:window-height="1355"
   inkscape:window-x="0"
   inkscape:window-y="0"
   inkscape:window-maximized="1"
   inkscape:current-layer="Layer_1" />
<circle
   style="fill:#f5c211;stroke-width:0.0800001"
   cx="20.480379"
   cy="20.480339"
   r="20.480339"
   id="circle1" />
<path
   style="fill:#e5a50a;stroke-width:0.0800001"
   d="M 9.7199697,31.240111 C 2.3526024,23.872584 1.7720418,12.288652 7.977888,4.2563243 7.2904473,4.7873648 6.6290066,5.3679254 5.998446,5.998486 c -7.997928,7.997928 -7.997928,20.965221 0,28.963069 7.997928,7.997848 20.965221,7.997928 28.963069,0 0.630481,-0.630481 1.211041,-1.292001 1.742162,-1.979442 -8.032248,6.205926 -19.61618,5.625366 -26.9837073,-1.742002 z"
   id="path1" /><path
   style="fill:#e5a50a;stroke-width:0.0800001"
   d="m 20.48014,32.495952 c -1.224241,0 -2.447922,-0.1668 -3.638003,-0.5004 -0.403601,-0.11312 -0.639121,-0.532161 -0.526001,-0.935921 0.11312,-0.4036 0.532161,-0.639361 0.935841,-0.526 2.111922,0.59208 4.344565,0.59208 6.456487,0 0.40392,-0.112961 0.822641,0.1224 0.935841,0.526 0.11312,0.4036 -0.1224,0.822641 -0.526001,0.935841 -1.190081,0.33368 -2.414322,0.50048 -3.638164,0.50048 z"
   id="path2" />
<g
   id="g5"
   transform="matrix(0.08000008,0,0,0.08000008,4.000004e-5,0)"
   style="fill:#3d3846">
	<path
   style="fill:#3d3846"
   d="m 384.701,297.195 c -70.969,70.966 -186.441,70.964 -257.402,0 -3.707,-3.706 -9.714,-3.706 -13.42,0 -3.706,3.706 -3.706,9.714 0,13.418 39.188,39.187 90.645,58.774 142.121,58.774 51.463,0 102.942,-19.596 142.121,-58.774 3.706,-3.706 3.706,-9.714 0,-13.418 -3.706,-3.705 -9.713,-3.707 -13.42,0 z"
   id="path3" />
	<path
   style="fill:#3d3846"
   d="m 142.674,231.083 c 19.358,0 35.107,-15.749 35.107,-35.107 0,-19.358 -15.749,-35.107 -35.107,-35.107 -19.358,0 -35.107,15.749 -35.107,35.107 0,19.358 15.749,35.107 35.107,35.107 z"
   id="path4" />
	<path
   style="fill:#3d3846"
   d="m 369.326,160.87 c -19.358,0 -35.107,15.749 -35.107,35.107 0,19.358 15.749,35.107 35.107,35.107 19.358,0 35.107,-15.749 35.107,-35.107 0,-19.358 -15.749,-35.107 -35.107,-35.107 z"
   id="path5" />
</g>
</svg>
