<?xml version="1.0" encoding="UTF-8" standalone="no"?>
<!-- Uploaded to: SVG Repo, www.svgrepo.com, Generator: SVG Repo Mixer Tools -->

<svg
   height="63.999935"
   width="63.999996"
   version="1.1"
   id="Layer_1"
   viewBox="0 0 40.960718 40.960678"
   xml:space="preserve"
   sodipodi:docname="server-init.svg"
   inkscape:version="1.4.4 (dcaf3e7d9e, 2026-05-05)"
   xmlns:inkscape="http://www.inkscape.org/namespaces/inkscape"
   xmlns:sodipodi="http://sodipodi.sourceforge.net/DTD/sodipodi-0.dtd"
   xmlns="http://www.w3.org/2000/svg"
   xmlns:svg="http://www.w3.org/2000/svg"><defs
   id="defs5">
	
	
</defs><sodipodi:namedview
   id="namedview5"
   pagecolor="#ffffff"
   bordercolor="#000000"
   borderopacity="0.25"
   inkscape:showpageshadow="2"
   inkscape:pageopacity="0.0"
   inkscape:pagecheckerboard="true"
   inkscape:deskcolor="#d1d1d1"
   inkscape:zoom="17.343768"
   inkscape:cx="32.028796"
   inkscape:cy="32.028796"
   inkscape:window-width="2304"
   inkscape:window-height="1371"
   inkscape:window-x="0"
   inkscape:window-y="0"
   inkscape:window-maximized="1"
   inkscape:current-layer="Layer_1" />
<circle
   style="fill:#f5c211;stroke-width:0.0800001"
   cx="20.480379"
   cy="20.480339"
   r="20.480339"
   id="circle1" />
<path
   style="fill:#e5a50a;stroke-width:0.0800001"
   d="M 9.7199697,31.240111 C 2.3526024,23.872584 1.7720418,12.288652 7.977888,4.2563243 7.2904473,4.7873648 6.6290066,5.3679254 5.998446,5.998486 c -7.997928,7.997928 -7.997928,20.965221 0,28.963069 7.997928,7.997848 20.965221,7.997928 28.963069,0 0.630481,-0.630481 1.211041,-1.292001 1.742162,-1.979442 -8.032248,6.205926 -19.61618,5.625366 -26.9837073,-1.742002 z"
   id="path1" /><path
   style="fill:#e5a50a;stroke-width:0.0800001"
   d="m 20.48014,32.495952 c -1.224241,0 -2.447922,-0.1668 -3.638003,-0.5004 -0.403601,-0.11312 -0.639121,-0.532161 -0.526001,-0.935921 0.11312,-0.4036 0.532161,-0.639361 0.935841,-0.526 2.111922,0.59208 4.344565,0.59208 6.456487,0 0.40392,-0.112961 0.822641,0.1224 0.935841,0.526 0.11312,0.4036 -0.1224,0.822641 -0.526001,0.935841 -1.190081,0.33368 -2.414322,0.50048 -3.638164,0.50048 z"
   id="path2" />
<g
   id="g5"
   transform="matrix(0.08000008,0,0,0.08000008,4.000004e-5,0)"
   style="fill:#3d3846">
	<path
   style="fill:#3d3846"
   d="m 384.701,297.195 c -70.969,70.966 -186.441,70.964 -257.402,0 -3.707,-3.706 -9.714,-3.706 -13.42,0 -3.706,3.706 -3.706,9.714 0,13.418 39.188,39.187 90.645,58.774 142.121,58.774 51.463,0 102.942,-19.596 142.121,-58.774 3.706,-3.706 3.706,-9.714 0,-13.418 -3.706,-3.705 -9.713,-3.707 -13.42,0 z"
   id="path3" />
	<path
   style="fill:#3d3846"
   d="m 142.674,231.083 c 19.358,0 35.107,-15.749 35.107,-35.107 0,-19.358 -15.749,-35.107 -35.107,-35.107 -19.358,0 -35.107,15.749 -35.107,35.107 0,19.358 15.749,35.107 35.107,35.107 z"
   id="path4" />
	<path
   style="fill:#3d3846"
   d="m 369.326,160.87 c -19.358,0 -35.107,15.749 -35.107,35.107 0,19.358 15.749,35.107 35.107,35.107 19.358,0 35.107,-15.749 35.107,-35.107 0,-19.358 -15.749,-35.107 -35.107,-35.107 z"
   id="path5" />
</g>
<path
   style="fill:#cdab8f;stroke-width:0.050681"
   d="M 35.574738,58.084028 C 22.653497,57.16441 11.567827,48.565136 7.4734212,36.285533 6.0344242,31.969812 5.5360521,27.284688 6.0301017,22.717094 6.6322827,17.1498 8.71649,11.773959 12.006372,7.3023671 12.371424,6.8061906 12.540851,6.6352836 13.011882,6.2880742 19.047731,1.8388862 26.485749,-0.36624604 33.91931,0.08969614 46.810383,0.88037824 58.026143,9.3857448 62.198708,21.535113 c 1.318908,3.840299 1.867359,7.523626 1.734233,11.646835 -0.186943,5.790018 -2.031824,11.545839 -5.266986,16.432415 -0.896612,1.354296 -1.322803,1.895168 -1.740806,2.209232 -4.836805,3.634097 -10.780634,5.82702 -16.979238,6.264348 -0.967163,0.06823 -3.387893,0.06607 -4.371173,-0.0039 z m -1.700899,-7.37899 c 1.369838,-0.113662 3.561304,-0.545491 4.060375,-0.800099 0.873695,-0.445726 0.824837,-1.721771 -0.082,-2.141624 -0.308216,-0.142699 -0.563922,-0.136237 -1.22919,0.03106 -1.566702,0.393992 -2.937579,0.56007 -4.623056,0.56007 -1.685477,0 -3.056354,-0.166078 -4.623057,-0.56007 -0.665267,-0.167301 -0.920974,-0.173763 -1.229189,-0.03106 -0.727035,0.336607 -0.934659,1.184329 -0.449958,1.837166 0.193727,0.260928 0.456054,0.379484 1.287785,0.582 2.277734,0.554599 4.484518,0.722009 6.88829,0.522557 z M 33.441407,46.15354 c 5.05543,-0.310806 9.689489,-2.001035 13.670039,-4.986015 0.86363,-0.647629 1.90253,-1.544907 2.454799,-2.120164 0.417018,-0.434376 0.476363,-0.523519 0.531778,-0.7988 0.160747,-0.798533 -0.379762,-1.469073 -1.175551,-1.458354 -0.203001,0.0027 -0.422512,0.04459 -0.531246,0.101302 -0.101915,0.05315 -0.491104,0.385143 -0.864864,0.737755 -3.201805,3.020636 -7.320019,5.073405 -11.655325,5.809723 -2.526594,0.429123 -5.169154,0.429337 -7.734129,6.28e-4 -4.304296,-0.719418 -8.463157,-2.791247 -11.663337,-5.810351 -0.37376,-0.352612 -0.762949,-0.684601 -0.864864,-0.737755 -0.108734,-0.05671 -0.328244,-0.09857 -0.531245,-0.101302 -0.825795,-0.01112 -1.390903,0.742794 -1.157801,1.544636 0.07707,0.265115 0.166751,0.379863 0.709498,0.907819 4.890896,4.757613 11.907835,7.33536 18.812248,6.910878 z M 18.940521,28.775021 c 0.510273,-0.134291 1.335811,-0.561359 1.725828,-0.892806 0.493373,-0.419281 0.810109,-0.826714 1.101861,-1.417378 0.577903,-1.169989 0.635365,-2.317615 0.177545,-3.545942 -0.235288,-0.631275 -0.533745,-1.083023 -1.047547,-1.585584 -0.908422,-0.888544 -1.947142,-1.278582 -3.254983,-1.222242 -1.196269,0.05153 -2.068715,0.43405 -2.919182,1.279889 -0.463943,0.461418 -0.560874,0.595078 -0.817049,1.126633 -0.346987,0.719991 -0.473122,1.246547 -0.471773,1.969441 0.0023,1.231141 0.415112,2.242117 1.267466,3.104015 0.64799,0.655245 1.496299,1.106048 2.378843,1.264149 0.415019,0.07435 1.439777,0.03015 1.858991,-0.08018 z m 28.367538,-0.0054 c 0.83555,-0.222101 1.777972,-0.840446 2.306935,-1.513634 0.590818,-0.751907 0.888056,-1.554282 0.934966,-2.52388 0.04201,-0.868305 -0.07239,-1.424738 -0.455287,-2.214534 -0.256854,-0.529806 -0.356366,-0.666734 -0.818782,-1.126633 -0.574468,-0.571341 -1.093807,-0.886381 -1.852517,-1.123765 -0.508027,-0.158951 -1.46771,-0.215926 -2.019247,-0.119879 -1.521285,0.26492 -2.814437,1.334811 -3.349948,2.771581 -0.241946,0.649139 -0.33397,1.234558 -0.29001,1.844918 0.04778,0.663421 0.163527,1.085214 0.466782,1.701024 0.608314,1.235283 1.69378,2.067338 3.087921,2.367019 0.465276,0.100015 1.500704,0.06763 1.989187,-0.06222 z"
   id="path6"
   transform="scale(0.64001125)" /><path
   style="fill:#b5835a;stroke-width:0.050681"
   d="M 29.895464,63.911873 C 25.599818,63.595588 21.714174,62.554201 17.960342,60.713153 14.768497,59.147728 12.236296,57.364489 9.6920312,54.8904 4.6201817,49.958444 1.3797769,43.588965 0.34938186,36.526088 -0.04853779,33.798535 -0.05847727,30.3707 0.3235516,27.617989 1.3469561,20.243843 4.9137911,13.4561 10.409511,8.4242526 11.235078,7.6683687 12.112855,6.9332813 12.14797,6.9683955 c 0.0152,0.0152 -0.140022,0.25677 -0.344937,0.5368231 C 9.5688353,10.55865 7.7230121,14.523949 6.779261,18.29756 c -0.68069,2.721755 -0.9666856,5.074434 -0.9647927,7.936647 0.00187,2.828629 0.2883486,5.144483 0.9700067,7.841433 1.6593176,6.565018 5.400604,12.467597 10.652881,16.806915 7.134795,5.894612 16.452529,8.397789 25.63287,6.886182 4.353608,-0.716852 8.61315,-2.380029 12.280717,-4.795117 0.459627,-0.302663 1.02633,-0.691286 1.25934,-0.863605 0.233011,-0.17232 0.434114,-0.302849 0.446897,-0.290067 0.0736,0.0736 -1.672874,2.01904 -2.789394,3.107167 -5.204884,5.072525 -11.824679,8.140013 -19.211967,8.902461 -1.050877,0.108462 -4.136618,0.157673 -5.160355,0.0823 z"
   id="path7"
   transform="scale(0.64001125)" /><path
   style="fill:#b5835a;stroke-width:0.050681"
   d="m 30.670554,50.709867 c -1.945858,-0.14455 -4.222301,-0.595781 -4.725968,-0.93677 -0.433706,-0.293625 -0.592028,-0.991132 -0.32925,-1.450549 0.07083,-0.123832 0.225823,-0.303298 0.34443,-0.398812 0.320653,-0.258224 0.66134,-0.268294 1.580297,-0.04671 1.58269,0.381621 2.806671,0.526055 4.459904,0.526286 1.634146,2.28e-4 2.927126,-0.151646 4.443539,-0.521941 0.382233,-0.09334 0.811189,-0.169705 0.953234,-0.169705 0.46615,0 0.912664,0.329287 1.062613,0.783635 0.16551,0.501503 -0.07899,1.129048 -0.530819,1.362423 -0.455057,0.235043 -2.535998,0.658367 -3.895952,0.792552 -0.868264,0.08567 -2.598225,0.116335 -3.362028,0.0596 z"
   id="path8"
   transform="scale(0.64001125)" /><path
   style="fill:#9a9996;stroke-width:0.050681"
   d="M 34.882847,58.000568 C 23.87012,56.922408 14.290527,50.41496 9.3390819,40.648606 5.4250251,32.928424 4.8009882,24.01147 7.6019875,15.827011 8.534095,13.103413 9.7424921,10.678252 11.365531,8.2738653 12.398042,6.7442928 12.521094,6.6246844 14.241427,5.4784689 18.61614,2.5637033 23.426498,0.815335 28.684655,0.22894545 c 1.156027,-0.12892008 4.358821,-0.17959574 5.561253,-0.087992 6.257601,0.47671709 12.014588,2.64447065 17.005966,6.40347915 1.302101,0.9806127 2.077268,1.6604984 3.381169,2.9655672 1.627905,1.6293612 2.878976,3.1606792 4.077507,4.9908862 5.009565,7.649816 6.500395,17.128016 4.081612,25.949565 -0.464615,1.694501 -1.20233,3.665526 -2.010138,5.370683 -0.816826,1.724194 -2.29492,4.143784 -3.275927,5.362582 -0.907121,1.127003 -4.742232,3.423527 -7.67778,4.597574 -2.942742,1.176925 -6.003722,1.915665 -9.203385,2.221152 -1.156398,0.110409 -4.606694,0.109284 -5.742085,-0.0019 z m -0.576576,-7.317223 c 1.549767,-0.183567 3.270299,-0.551689 3.695546,-0.790691 0.355141,-0.1996 0.53556,-0.510086 0.559666,-0.963134 0.02507,-0.471225 -0.133879,-0.814115 -0.49546,-1.068803 -0.354458,-0.249671 -0.691758,-0.25834 -1.663567,-0.04276 -1.795064,0.398208 -2.608169,0.488414 -4.402489,0.488414 -1.79432,0 -2.607425,-0.09021 -4.402489,-0.488414 -0.97181,-0.21558 -1.30911,-0.206911 -1.663568,0.04276 -0.615489,0.433535 -0.677383,1.374843 -0.124327,1.890819 0.384425,0.358651 2.703229,0.860065 4.691286,1.014435 0.877259,0.06812 2.904332,0.0241 3.805402,-0.08263 z m -0.49009,-4.53046 c 4.966799,-0.419876 9.333734,-2.025012 13.121308,-4.822943 1.295115,-0.95672 2.87016,-2.379129 3.076709,-2.778551 0.458737,-0.8871 -0.253054,-1.8925 -1.256007,-1.7741 -0.359792,0.04248 -0.454876,0.106688 -1.335567,0.901949 -1.401797,1.265818 -2.864723,2.333816 -4.336195,3.165606 -5.474368,3.094534 -12.24243,3.738866 -18.236004,1.736101 -3.074634,-1.027396 -5.718574,-2.593841 -8.273393,-4.901707 -0.880264,-0.795177 -0.975445,-0.859468 -1.335289,-0.901949 -0.980032,-0.115694 -1.685573,0.823164 -1.283968,1.708566 0.12747,0.281026 0.736242,0.900482 1.699206,1.729024 1.575952,1.355963 3.236789,2.44545 5.186241,3.402105 3.001073,1.472718 5.992873,2.277095 9.513503,2.557805 0.56931,0.04539 2.832921,0.03106 3.459456,-0.02191 z M 19.19998,28.704197 c 1.393652,-0.482391 2.373015,-1.464899 2.864394,-2.873593 0.147245,-0.422126 0.16097,-0.532193 0.161763,-1.297296 7.44e-4,-0.716923 -0.01838,-0.897645 -0.134227,-1.268467 -0.20603,-0.659499 -0.553978,-1.277904 -0.974693,-1.732315 -0.916272,-0.98966 -1.922447,-1.437558 -3.231378,-1.438449 -0.812723,-5.53e-4 -1.370473,0.121219 -2.029614,0.443121 -0.472865,0.230932 -0.626863,0.346458 -1.131495,0.84883 -0.607592,0.60487 -0.812067,0.931698 -1.126169,1.80004 -0.175786,0.485963 -0.216173,1.684257 -0.07784,2.309466 0.272553,1.231813 1.130796,2.334311 2.278654,2.927157 0.790999,0.408534 1.196245,0.498355 2.132136,0.47258 0.678527,-0.01869 0.841247,-0.0432 1.268467,-0.191074 z m 28.194565,0.06666 c 1.09618,-0.333992 2.135631,-1.175424 2.670648,-2.16188 0.381864,-0.704074 0.47189,-1.118059 0.470186,-2.16216 -0.0015,-0.917933 -0.0025,-0.925153 -0.206596,-1.451592 -0.297887,-0.768461 -0.53321,-1.120394 -1.134143,-1.696139 -0.946474,-0.906806 -1.877943,-1.244021 -3.291603,-1.191642 -0.622224,0.02305 -0.796886,0.05196 -1.199111,0.198416 -0.692498,0.252154 -1.08119,0.505158 -1.667057,1.085105 -0.444156,0.439667 -0.565417,0.602572 -0.793994,1.066665 -0.399739,0.811617 -0.51988,1.360051 -0.485885,2.218033 0.02285,0.576648 0.0569,0.778588 0.201818,1.196986 0.516327,1.490649 1.613317,2.516386 3.130622,2.927274 0.362421,0.09814 0.555465,0.112854 1.209621,0.09217 0.497741,-0.01574 0.892711,-0.05945 1.095494,-0.121234 z"
   id="path9"
   transform="scale(0.64001125)" /><path
   style="fill:#9a9996;stroke-width:0.050681"
   d="M 28.915285,63.800287 C 24.818498,63.342949 21.572444,62.419733 18.06985,60.715715 14.639823,59.047002 12.166756,57.285284 9.4503472,54.575513 6.8317531,51.963318 5.0051087,49.428918 3.402055,46.183736 2.1772309,43.704233 1.443382,41.64251 0.836727,38.976536 -0.11612722,34.789174 -0.18525669,30.168906 0.64132869,25.91709 1.6741829,20.604262 4.0128662,15.707376 7.5536562,11.443615 8.2821951,10.56632 10.531033,8.3083061 11.356441,7.6253153 11.688254,7.3507525 11.969867,7.1362386 11.982246,7.1486178 11.994625,7.160997 11.771126,7.5035661 11.485579,7.9098826 9.2136034,11.14278 7.4644835,15.124112 6.5660957,19.107571 c -0.4504685,1.997381 -0.6546288,3.568151 -0.7426789,5.714036 -0.1084914,2.644069 0.075106,5.154101 0.5503718,7.524305 1.0944138,5.457979 3.3417392,10.155813 6.9240654,14.474145 0.795228,0.958612 2.823864,2.990964 3.826453,3.833464 5.283786,4.440094 11.641216,7.011993 18.532989,7.497524 1.254809,0.0884 4.256419,0.04031 5.394914,-0.08643 5.636913,-0.627539 10.673457,-2.501409 15.153608,-5.637973 0.359778,-0.251882 0.665402,-0.446708 0.679162,-0.432947 0.04223,0.04223 -1.009577,1.232864 -1.929632,2.184329 -5.268575,5.448432 -11.912459,8.698674 -19.611241,9.593977 -0.537499,0.06251 -1.501012,0.09782 -3.11351,0.114113 -2.017888,0.02039 -2.468297,0.0087 -3.315312,-0.08583 z"
   id="path10"
   transform="scale(0.64001125)" /><path
   style="fill:#c0bfbc;stroke-width:0.050681"
   d="M 35.055819,57.992179 C 34.913117,57.981155 34.313211,57.908097 33.722695,57.829827 27.518831,57.007564 21.737798,54.428283 16.980163,50.359936 16.046319,49.561388 14.291416,47.795167 13.511928,46.869332 9.1205766,41.653524 6.5892127,35.522828 5.9915721,28.655826 5.900545,27.609908 5.8989856,24.788586 5.9888632,23.75493 6.3457646,19.650312 7.3161513,16.028663 9.0425663,12.357987 9.8549096,10.630796 11.579797,7.8334126 12.372749,6.9571722 13.203292,6.0393929 16.44625,4.0243331 18.796377,2.9657571 21.786882,1.6187331 24.884405,0.7458422 28.223394,0.30919587 29.391183,0.15648182 33.427739,0.08748991 34.666937,0.19906429 40.755252,0.74724108 46.28978,2.8737874 51.228776,6.5626622 c 2.489948,1.8597123 5.04372,4.4938768 6.857485,7.0733598 3.15341,4.484686 5.029789,9.515106 5.656249,15.163948 0.1268,1.143322 0.175492,4.034844 0.08884,5.27567 -0.398033,5.70005 -2.18365,10.94165 -5.342567,15.682867 -0.780914,1.172074 -1.145038,1.615074 -1.696053,2.063449 -1.026787,0.835525 -2.799278,1.927616 -4.660519,2.871502 -3.45318,1.751203 -7.552341,2.921425 -11.483609,3.278322 -0.595896,0.0541 -4.951027,0.06998 -5.592787,0.0204 z m -1.614412,-7.22582 c 1.341833,-0.0815 3.253857,-0.40178 4.157292,-0.696385 0.688476,-0.224508 0.970531,-0.578882 0.972968,-1.222438 0.0027,-0.704236 -0.479948,-1.193531 -1.177235,-1.193531 -0.175028,0 -0.749668,0.0909 -1.276978,0.20201 -1.663535,0.350511 -2.15991,0.398559 -4.117487,0.398559 -1.957577,0 -2.453952,-0.04805 -4.117488,-0.398559 -1.103674,-0.232547 -1.497436,-0.251891 -1.816289,-0.08922 -0.451819,0.2305 -0.668773,0.650006 -0.627961,1.214233 0.0491,0.678764 0.353333,0.925201 1.516698,1.228557 2.00767,0.523515 4.090521,0.7023 6.48648,0.556777 z m 0.845431,-4.63823 c 3.7724,-0.398111 7.198642,-1.458867 10.138341,-3.138805 2.262715,-1.293065 5.326017,-3.746348 5.651962,-4.526444 0.336203,-0.804648 -0.283377,-1.709496 -1.167232,-1.70465 -0.410507,0.0023 -0.630252,0.1328 -1.479695,0.879076 -1.854756,1.629492 -3.260844,2.620218 -5.00739,3.528192 -2.661669,1.383717 -5.465927,2.187888 -8.568749,2.457239 -1.038521,0.09015 -3.729697,0.0396 -4.679331,-0.0879 -3.769688,-0.506125 -7.126555,-1.804876 -10.145626,-3.925278 -0.761152,-0.534583 -1.470105,-1.103112 -2.459399,-1.972253 -0.424942,-0.373332 -0.869676,-0.723511 -0.988296,-0.778175 -0.598681,-0.27589 -1.409828,0.03536 -1.661427,0.637525 -0.104651,0.250465 -0.105501,0.707032 -0.0018,0.955275 0.235132,0.562751 2.272114,2.348538 3.984466,3.493113 3.52245,2.354486 7.32596,3.70653 11.819808,4.20162 0.78869,0.08689 3.676479,0.07516 4.564346,-0.01853 z M 18.805785,28.831856 c 1.249484,-0.264824 2.411066,-1.18214 2.99153,-2.362446 0.411493,-0.836725 0.478123,-1.157084 0.444508,-2.137211 -0.02507,-0.730965 -0.04553,-0.856146 -0.214879,-1.314546 -0.466247,-1.262069 -1.549097,-2.343023 -2.736947,-2.732157 -0.386925,-0.126755 -0.601051,-0.156616 -1.278132,-0.178241 -0.951283,-0.03038 -1.441269,0.06456 -2.194829,0.425274 -0.377949,0.180917 -0.554728,0.319755 -1.087824,0.854348 -0.655969,0.65781 -0.887406,1.017082 -1.154041,1.791477 -0.151763,0.440768 -0.184203,1.78915 -0.05682,2.361716 0.119088,0.535275 0.509151,1.329915 0.864321,1.760803 0.608175,0.737828 1.645943,1.388209 2.482174,1.555609 0.384677,0.07701 1.529985,0.06247 1.940938,-0.02463 z m 28.646418,-0.06147 c 0.923653,-0.287173 1.863761,-0.993979 2.428829,-1.826078 0.539261,-0.794098 0.71794,-1.540232 0.670822,-2.801233 -0.02539,-0.679436 -0.04289,-0.771467 -0.235088,-1.236055 -0.282647,-0.68323 -0.439567,-0.921636 -0.953738,-1.448981 -1.042511,-1.069223 -1.89654,-1.402814 -3.458907,-1.351077 -0.709885,0.02351 -0.836256,0.04436 -1.288919,0.212685 -0.97484,0.362503 -1.953959,1.240442 -2.39875,2.15087 -0.347931,0.712168 -0.472539,1.248332 -0.471499,2.028768 0.0011,0.807272 0.100469,1.234489 0.458328,1.970016 0.564178,1.159583 1.584924,1.989727 2.904136,2.361853 0.412388,0.116327 1.899114,0.0778 2.344786,-0.06077 z"
   id="path11"
   transform="scale(0.64001125)" /><path
   style="fill:#9a9996;stroke-width:0.050681"
   d="m 29.981951,50.619108 c -1.832846,-0.198149 -3.623485,-0.59567 -4.049435,-0.898974 -0.424563,-0.302316 -0.524365,-1.083032 -0.193843,-1.51637 0.382477,-0.501453 0.704608,-0.537779 2.091447,-0.235851 1.729658,0.376563 2.039713,0.406812 4.169847,0.406812 2.133477,0 2.443025,-0.03034 4.180176,-0.409662 0.507386,-0.110793 1.045865,-0.202651 1.196619,-0.204129 0.340449,-0.0033 0.641956,0.146667 0.875982,0.435813 0.16,0.197686 0.176045,0.255504 0.176045,0.634386 0,0.360854 -0.02187,0.449927 -0.162748,0.662807 -0.202014,0.305262 -0.433701,0.412454 -1.373615,0.635516 -2.219846,0.526818 -4.845692,0.712876 -6.910475,0.489652 z"
   id="path12"
   transform="scale(0.64001125)" /></svg>
