<?xml version="1.0" encoding="UTF-8" standalone="no"?>
<!-- Uploaded to: SVG Repo, www.svgrepo.com, Generator: SVG Repo Mixer Tools -->

<svg
   height="63.999935"
   width="63.999996"
   version="1.1"
   id="Layer_1"
   viewBox="0 0 40.960718 40.960678"
   xml:space="preserve"
   sodipodi:docname="server-bad.svg"
   inkscape:version="1.3.2 (091e20ef0f, 2023-11-25)"
   xmlns:inkscape="http://www.inkscape.org/namespaces/inkscape"
   xmlns:sodipodi="http://sodipodi.sourceforge.net/DTD/sodipodi-0.dtd"
   xmlns="http://www.w3.org/2000/svg"
   xmlns:svg="http://www.w3.org/2000/svg"><defs
   id="defs7">
	
	
</defs><sodipodi:namedview
   id="namedview7"
   pagecolor="#ffffff"
   bordercolor="#000000"
   borderopacity="0.25"
   inkscape:showpageshadow="2"
   inkscape:pageopacity="0.0"
   inkscape:pagecheckerboard="0"
   inkscape:deskcolor="#d1d1d1"
   inkscape:zoom="17.343768"
   inkscape:cx="32.057624"
   inkscape:cy="31.999967"
   inkscape:window-width="2304"
   inkscape:window-height="1355"
   inkscape:window-x="0"
   inkscape:window-y="0"
   inkscape:window-maximized="1"
   inkscape:current-layer="Layer_1" />
<circle
   style="fill:#33d17a;stroke-width:0.0800001"
   cx="20.480379"
   cy="20.480339"
   r="20.480339"
   id="circle1" />
<path
   style="fill:#26a269;stroke-width:0.0800001"
   d="M 9.7199697,31.240111 C 2.3526024,23.872584 1.7720418,12.288652 7.977888,4.2563243 7.2904473,4.7873648 6.6290066,5.3679254 5.998446,5.998486 c -7.997928,7.997928 -7.997928,20.965221 0,28.963069 7.997928,7.997848 20.965221,7.997928 28.963069,0 0.630481,-0.630481 1.211041,-1.292001 1.742162,-1.979442 -8.032248,6.205926 -19.61618,5.625366 -26.9837073,-1.742002 z"
   id="path1" /><path
   style="fill:#26a269;stroke-width:0.0800001"
   d="m 22.984383,31.866112 c -0.08536,0 -0.17216,-0.01448 -0.25712,-0.04504 -1.449282,-0.521761 -3.045363,-0.521761 -4.494565,0 -0.3944,0.142 -0.829361,-0.06264 -0.971361,-0.457041 -0.142,-0.3944 0.06264,-0.82936 0.457041,-0.971361 1.780801,-0.6412 3.742323,-0.6412 5.523045,0 0.394401,0.142001 0.599041,0.576881 0.457041,0.971361 -0.1112,0.309361 -0.402881,0.502081 -0.714081,0.502081 z"
   id="path2" />
<g
   id="g7"
   transform="matrix(0.08000008,0,0,0.08000008,4.000004e-5,0)"
   style="fill:#3d3846">
	<path
   style="fill:#3d3846"
   d="m 371.325,311.665 c 5.24,0 9.489,-4.248 9.489,-9.489 0,-5.24 -4.248,-9.489 -9.489,-9.489 -28.157,0 -51.592,20.552 -56.124,47.441 H 196.8 c -4.532,-26.888 -27.966,-47.441 -56.124,-47.441 -5.24,0 -9.489,4.248 -9.489,9.489 0,5.24 4.248,9.489 9.489,9.489 20.927,0 37.952,17.025 37.952,37.952 0,20.927 -17.025,37.952 -37.952,37.952 -5.24,0 -9.489,4.248 -9.489,9.489 0,5.24 4.248,9.489 9.489,9.489 28.157,0 51.592,-20.552 56.124,-47.441 h 118.401 c 4.532,26.888 27.966,47.441 56.124,47.441 5.24,0 9.489,-4.248 9.489,-9.489 0,-5.24 -4.248,-9.489 -9.489,-9.489 -20.927,0 -37.952,-17.025 -37.952,-37.952 0,-20.927 17.025,-37.952 37.952,-37.952 z"
   id="path3" />
	<path
   style="fill:#3d3846"
   d="m 177.781,236.754 c 0,-19.358 -15.749,-35.107 -35.107,-35.107 -19.358,0 -35.107,15.749 -35.107,35.107 0,19.358 15.749,35.107 35.107,35.107 19.358,0 35.107,-15.749 35.107,-35.107 z"
   id="path4" />
	<path
   style="fill:#3d3846"
   d="m 369.327,201.647 c -19.358,0 -35.107,15.749 -35.107,35.107 0,19.358 15.749,35.107 35.107,35.107 19.358,0 35.107,-15.749 35.107,-35.107 0,-19.358 -15.75,-35.107 -35.107,-35.107 z"
   id="path5" />
	<path
   style="fill:#3d3846"
   d="m 114.737,180.734 c 4.241,1.069 8.512,1.592 12.736,1.592 13.402,0 26.315,-5.266 36.125,-15.076 12.902,-12.902 17.942,-31.168 13.484,-48.862 -1.28,-5.082 -6.438,-8.164 -11.519,-6.882 -5.082,1.28 -8.163,6.437 -6.882,11.519 2.811,11.155 -0.367,22.67 -8.502,30.805 -8.134,8.135 -19.649,11.311 -30.805,8.502 -5.083,-1.284 -10.239,1.8 -11.519,6.882 -1.281,5.083 1.8,10.24 6.882,11.52 z"
   id="path6" />
	<path
   style="fill:#3d3846"
   d="m 384.527,182.326 c 4.223,0 8.497,-0.523 12.736,-1.592 5.082,-1.28 8.163,-6.437 6.882,-11.519 -1.28,-5.082 -6.436,-8.163 -11.519,-6.882 -11.155,2.81 -22.67,-0.367 -30.805,-8.502 -8.135,-8.134 -11.312,-19.649 -8.502,-30.805 1.28,-5.082 -1.8,-10.239 -6.882,-11.519 -5.081,-1.283 -10.239,1.8 -11.519,6.882 -4.458,17.693 0.582,35.958 13.484,48.862 9.811,9.809 22.722,15.076 36.125,15.075 z"
   id="path7" />
</g>
</svg>
