<?xml version="1.0" encoding="UTF-8" standalone="no"?>
<!-- Uploaded to: SVG Repo, www.svgrepo.com, Generator: SVG Repo Mixer Tools -->

<svg
   height="63.999935"
   width="63.999996"
   version="1.1"
   id="Layer_1"
   viewBox="0 0 40.960718 40.960678"
   xml:space="preserve"
   sodipodi:docname="server-down.svg"
   inkscape:version="1.3.2 (091e20ef0f, 2023-11-25)"
   xmlns:inkscape="http://www.inkscape.org/namespaces/inkscape"
   xmlns:sodipodi="http://sodipodi.sourceforge.net/DTD/sodipodi-0.dtd"
   xmlns="http://www.w3.org/2000/svg"
   xmlns:svg="http://www.w3.org/2000/svg"><defs
   id="defs5">
	
	
</defs><sodipodi:namedview
   id="namedview5"
   pagecolor="#ffffff"
   bordercolor="#000000"
   borderopacity="0.25"
   inkscape:showpageshadow="2"
   inkscape:pageopacity="0.0"
   inkscape:pagecheckerboard="true"
   inkscape:deskcolor="#d1d1d1"
   inkscape:zoom="17.343768"
   inkscape:cx="31.999967"
   inkscape:cy="31.999967"
   inkscape:window-width="2304"
   inkscape:window-height="1355"
   inkscape:window-x="0"
   inkscape:window-y="0"
   inkscape:window-maximized="1"
   inkscape:current-layer="Layer_1" />
<circle
   style="fill:#ed333b;stroke-width:0.0800001"
   cx="20.480379"
   cy="20.480339"
   r="20.480339"
   id="circle1" />
<path
   style="fill:#c01c28;stroke-width:0.0800001"
   d="M 9.7199697,31.240111 C 2.3526024,23.872584 1.7720418,12.288652 7.977888,4.2563243 7.2904473,4.7873648 6.6290066,5.3679254 5.998446,5.998486 c -7.997928,7.997928 -7.997928,20.965221 0,28.963069 7.997928,7.997848 20.965221,7.997928 28.963069,0 0.630481,-0.630481 1.211041,-1.292001 1.742162,-1.979442 -8.032248,6.205926 -19.61618,5.625366 -26.9837073,-1.742002 z"
   id="path1" /><path
   style="fill:#c01c28;stroke-width:0.0800001"
   d="m 17.558778,26.318826 c -0.220641,0 -0.439361,-0.09568 -0.589361,-0.28016 -0.26448,-0.3252 -0.21536,-0.803441 0.10992,-1.067921 0.966241,-0.785921 2.193282,-1.218801 3.454964,-1.218801 1.203041,0 2.385282,0.39816 3.329123,1.121041 0.3328,0.25496 0.39592,0.731441 0.14112,1.064241 -0.25496,0.33288 -0.731361,0.39592 -1.064241,0.14112 -0.680321,-0.52112 -1.534802,-0.808081 -2.405922,-0.808081 -0.913761,0 -1.800562,0.311921 -2.497043,0.878321 -0.1408,0.11456 -0.31008,0.17024 -0.47856,0.17024 z"
   id="path2" />
<g
   id="g5"
   transform="matrix(0.08000008,0,0,0.08000008,4.000004e-5,0)"
   style="fill:#3d3846">
	<path
   style="fill:#3d3846"
   d="m 177.781,228.807 c 0,-4.059 -0.701,-7.957 -1.974,-11.586 3.792,0.39 7.754,0.611 11.906,0.611 10.99,0 23.242,-1.495 36.755,-5.169 5.056,-1.375 8.04,-6.589 6.666,-11.647 -1.376,-5.058 -6.598,-8.039 -11.647,-6.666 -67.339,18.318 -96.497,-24.523 -97.722,-26.381 -2.848,-4.375 -8.697,-5.631 -13.089,-2.802 -4.407,2.836 -5.678,8.708 -2.842,13.115 0.316,0.493 6.677,10.214 19.755,19.873 -10.741,6.011 -18.022,17.495 -18.022,30.653 0,19.358 15.749,35.107 35.107,35.107 19.358,0 35.107,-15.749 35.107,-35.108 z"
   id="path3" />
	<path
   style="fill:#3d3846"
   d="m 260.482,257.053 c -46.994,0 -88.83,29.238 -104.106,72.754 -1.735,4.944 0.867,10.359 5.811,12.096 4.949,1.737 10.36,-0.865 12.097,-5.811 12.61,-35.925 47.251,-60.062 86.199,-60.062 38.94,0 73.576,24.137 86.186,60.062 1.371,3.906 5.037,6.35 8.953,6.349 1.043,0 2.103,-0.173 3.143,-0.538 4.944,-1.736 7.545,-7.151 5.811,-12.096 C 349.3,286.291 307.467,257.053 260.482,257.053 Z"
   id="path4" />
	<path
   style="fill:#3d3846"
   d="m 403.353,165.214 c -4.375,-2.85 -10.245,-1.608 -13.116,2.753 -1.207,1.833 -30.365,44.704 -97.722,26.384 -5.052,-1.374 -10.271,1.608 -11.647,6.666 -1.375,5.057 1.609,10.271 6.666,11.647 13.516,3.675 25.764,5.169 36.755,5.169 4.151,0 8.113,-0.221 11.905,-0.611 -1.273,3.63 -1.974,7.526 -1.974,11.586 0,19.358 15.749,35.107 35.107,35.107 19.358,0 35.107,-15.749 35.107,-35.107 0,-13.159 -7.281,-24.643 -18.022,-30.653 13.078,-9.659 19.439,-19.38 19.755,-19.873 2.826,-4.391 1.561,-10.219 -2.814,-13.068 z"
   id="path5" />
</g>
</svg>
