<?xml version="1.0" encoding="UTF-8" standalone="no"?>
<svg
   height="16px"
   viewBox="0 0 16 16"
   width="16px"
   version="1.1"
   id="svg2"
   sodipodi:docname="arrow-out-of-box-symbolic.svg"
   inkscape:version="1.3.2 (091e20ef0f, 2023-11-25)"
   xmlns:inkscape="http://www.inkscape.org/namespaces/inkscape"
   xmlns:sodipodi="http://sodipodi.sourceforge.net/DTD/sodipodi-0.dtd"
   xmlns="http://www.w3.org/2000/svg"
   xmlns:svg="http://www.w3.org/2000/svg">
  <defs
     id="defs2" />
  <sodipodi:namedview
     id="namedview2"
     pagecolor="#ffffff"
     bordercolor="#000000"
     borderopacity="0.25"
     inkscape:showpageshadow="2"
     inkscape:pageopacity="0.0"
     inkscape:pagecheckerboard="true"
     inkscape:deskcolor="#d1d1d1"
     inkscape:zoom="69.375"
     inkscape:cx="8"
     inkscape:cy="8"
     inkscape:window-width="2304"
     inkscape:window-height="1355"
     inkscape:window-x="0"
     inkscape:window-y="0"
     inkscape:window-maximized="1"
     inkscape:current-layer="svg2" />
  <g
     id="g1"
     style="opacity:1;fill:#bebebe;fill-opacity:1;stroke:none"
     transform="matrix(1.0014273,0,0,0.99647518,-3.8816422e-5,-6.6885559e-5)">
    <path
       d="m 11.907358,5.378491 v 0.6637246 c 0,0.1711163 0.09769,0.3500113 0.236823,0.4770521 L 13.115154,7.369665 H 7.3603603 v 1.3274493 h 5.7547937 l -0.970973,0.8503974 c -0.139135,0.1270409 -0.236823,0.2722307 -0.236823,0.4770523 v 0.663725 h 0.757832 c 0.233863,0 0.417401,-0.05963 0.568376,-0.186673 L 16.004392,8.0333897 13.233566,5.5651635 C 13.082591,5.4381227 12.899053,5.378491 12.66519,5.378491 Z m 0,0"
       id="path2"
       style="fill:#bebebe;stroke-width:0.709219;fill-opacity:1;stroke:none" />
    <path
       d="m 11.027196,0.0186374 c 1.64453,0 -1.2469593,0.010808 0.397466,-0.00788 l 2.615653,-0.029733 -0.0036,2.0281531 -3.006813,-0.02973 c -0.570284,-0.00564 -5.4505048,-0.00758 -6.020721,0.00287 l -1.981985,0.03632 c -0.570216,0.010449 -1,0.429688 -1,1 v 9.9999995 c 0,0.570312 0.429688,1.000001 1,1.000001 h 8 c 0.570311,0 0.956434,-0.02917 1.526745,-0.02798 l 1.490822,0.0031 0.0079,2.043863 -0.97393,-0.0025 c -1.119107,-0.0029 -0.407046,-0.01648 -2.051577,-0.01648 h -7.99996 c -1.644531,0 -3,-1.355469 -3,-3 V 3.0186404 c 0,-1.644531 1.355469,-3 3,-3 z"
       id="path1"
       style="fill:#bebebe;fill-opacity:1;stroke:none"
       sodipodi:nodetypes="ssccssssssssccsssssss" />
  </g>
</svg>
